#!OML:ASF X:\für Bonn\!DataBase\2005_08_10_Bjorn_Final\c3d\bjorn.ASF
:FULLY-SPECIFIED
:DEGREES
65
root 1.08039 9.58281 2.87818 -177.897 -5.29572 -180.849
lowerback 37.3563 0.692505 6.46629
upperback 11.5229 -0.630693 0.173373
thorax -5.5305 -1.74165 -2.80459
lowerneck -17.0354 0.377803 2.9581
upperneck -8.71962 -1.51105 -3.31646
head 0.0225817 -1.51784 -1.63518
rclavicle 1.98785e-015 1.98785e-015
rhumerus 78.3899 -2.77237 -56.4681
rradius 16.4988
rwrist 28.7089
rhand -18.2089 10.583
rfingers 7.12502
rthumb 8.06869 -19.243
lclavicle 1.98785e-015 1.98785e-015
lhumerus 80.8844 -6.36875 58.0169
lradius 13.7273
lwrist -34.9116
lhand -26.6791 -7.31861
lfingers 7.12502
lthumb -0.110151 22.6611
rfemur 86.5432 -125.279 -161.888
rtibia 141.351
rfoot -40.3268 36.0919
rtoes -32.645
lfemur -91.6562 33.7384 -23.0408
ltibia 141.557
lfoot -36.0547 -13.6462
ltoes -35.8314
66
root 1.07399 9.3433 2.87159 -178.726 -5.24941 -180.893
lowerback 38.1838 0.665174 6.57328
upperback 11.5208 -0.665704 0.152769
thorax -5.80345 -1.80145 -2.84489
lowerneck -16.8474 0.381391 3.0823
upperneck -8.61511 -1.49083 -3.40995
head 0.0272907 -1.49656 -1.6854
rclavicle 9.14409e-015 1.98785e-014
rhumerus 77.774 -2.32613 -55.4996
rradius 16.5443
rwrist 27.3597
rhand -17.8789 10.4613
rfingers 7.12502
rthumb 8.3872 -19.3522
lclavicle 9.14409e-015 1.98785e-014
lhumerus 80.4332 -6.62657 57.8787
lradius 13.6039
lwrist -34.5275
lhand -26.4987 -7.50452
lfingers 7.12502
lthumb 0.0640461 22.4752
rfemur 84.3382 -119.004 -160.823
rtibia 143.156
rfoot -43.1319 37.8809
rtoes -34.0057
lfemur -92.9203 38.1195 -23.9768
ltibia 143.368
lfoot -37.1584 -14.7231
ltoes -36.3563
67
root 1.06927 9.11294 2.86438 -179.566 -5.20338 -180.935
lowerback 38.9499 0.650598 6.65411
upperback 11.5653 -0.711787 0.150543
thorax -5.99988 -1.87012 -2.84963
lowerneck -16.7643 0.389256 3.17556
upperneck -8.48156 -1.4675 -3.49212
head 0.0584267 -1.47631 -1.72826
rclavicle -3.18055e-015 1.55052e-014
rhumerus 77.2072 -1.86569 -54.2517
rradius 16.6389
rwrist 25.799
rhand -17.5773 10.3703
rfingers 7.12502
rthumb 8.67828 -19.4313
lclavicle -3.18055e-015 1.55052e-014
lhumerus 80.0152 -6.83152 57.6636
lradius 13.4984
lwrist -34.0431
lhand -26.5339 -7.73094
lfingers 7.12502
lthumb 0.0301088 22.2488
rfemur 81.4713 -112.26 -159.296
rtibia 144.846
rfoot -46.333 40.1704
rtoes -34.7648
lfemur -94.3601 43.1742 -25.0012
ltibia 145.073
lfoot -38.4099 -16.3801
ltoes -36.4166
68
root 1.064 8.89405 2.85779 -180.398 -5.16912 -180.959
lowerback 39.6862 0.625218 6.7859
upperback 11.6141 -0.75358 0.131748
thorax -6.17499 -1.93443 -2.89996
lowerneck -16.8145 0.401053 3.30037
upperneck -8.28466 -1.448 -3.54179
head 0.131681 -1.4602 -1.76907
rclavicle -1.15295e-014 2.78299e-015
rhumerus 76.6524 -1.4226 -52.8821
rradius 16.7036
rwrist 24.1996
rhand -17.3791 10.2231
rfingers 7.12502
rthumb 8.86952 -19.5705
lclavicle -1.15295e-014 2.78299e-015
lhumerus 79.6868 -7.08449 57.3473
lradius 13.3092
lwrist -33.6003
lhand -26.793 -7.91348
lfingers 7.12502
lthumb -0.220161 22.0662
rfemur 77.1199 -105.495 -156.414
rtibia 146.413
rfoot -50.1756 42.1489
rtoes -35.6347
lfemur -96.1092 48.6573 -26.2019
ltibia 146.67
lfoot -39.8116 -18.3654
ltoes -36.2013
69
root 1.0593 8.68607 2.85036 -181.211 -5.11268 -180.981
lowerback 40.3639 0.617502 6.89142
upperback 11.6639 -0.78153 0.131037
thorax -6.32497 -1.99157 -2.92376
lowerneck -16.9227 0.413938 3.40461
upperneck -8.05707 -1.42714 -3.62003
head 0.224685 -1.44457 -1.817
rclavicle 7.55382e-015 -7.55382e-015
rhumerus 76.1162 -0.978715 -51.5901
rradius 16.7785
rwrist 22.9234
rhand -17.2637 10.14
rfingers 7.12502
rthumb 8.98089 -19.6489
lclavicle 7.55382e-015 -7.55382e-015
lhumerus 79.3094 -7.29213 57.1781
lradius 13.1362
lwrist -33.492
lhand -27.1079 -8.0959
lfingers 7.12502
lthumb -0.52433 21.8832
rfemur 68.484 -99.0591 -149.399
rtibia 147.869
rfoot -54.4564 43.7371
rtoes -36.5451
lfemur -98.3201 54.5991 -27.713
ltibia 148.166
lfoot -41.3013 -20.8002
ltoes -35.5497
70
root 1.05442 8.48979 2.84374 -182.017 -5.08083 -180.967
lowerback 40.9702 0.60188 7.02927
upperback 11.7571 -0.821647 0.152117
thorax -6.39949 -2.05615 -2.93859
lowerneck -17.2546 0.430766 3.4597
upperneck -7.7536 -1.40679 -3.66793
head 0.379411 -1.4335 -1.85088
rclavicle 3.18055e-014 -5.56597e-015
rhumerus 75.683 -0.589759 -50.4067
rradius 16.8385
rwrist 21.8999
rhand -17.2259 10.086
rfingers 7.12502
rthumb 9.01735 -19.7013
lclavicle 3.18055e-014 -5.56597e-015
lhumerus 79.0332 -7.43729 56.9968
lradius 12.91
lwrist -33.5614
lhand -27.3941 -8.15591
lfingers 7.12502
lthumb -0.80074 21.8223
rfemur 37.9211 -93.6386 -120.576
rtibia 149.211
rfoot -58.7337 45.1249
rtoes -37.1449
lfemur -101.148 60.5203 -29.6423
ltibia 149.556
lfoot -42.8263 -23.3534
ltoes -34.6699
71
root 1.04848 8.30643 2.83641 -182.799 -5.0159 -180.897
lowerback 41.5535 0.588616 7.18757
upperback 11.8236 -0.838079 0.203323
thorax -6.48973 -2.1083 -2.94045
lowerneck -17.6525 0.457443 3.47614
upperneck -7.40329 -1.36692 -3.7032
head 0.5621 -1.41188 -1.87466
rclavicle -1.19271e-014 1.39149e-014
rhumerus 75.2806 -0.214514 -49.4422
rradius 16.8598
rwrist 21.3525
rhand -17.2019 10.0631
rfingers 7.12502
rthumb 9.04056 -19.7231
lclavicle -1.19271e-014 1.39149e-014
lhumerus 78.7278 -7.55388 56.8688
lradius 12.696
lwrist -33.7413
lhand -27.5385 -8.15978
lfingers 7.12502
lthumb -0.940172 21.8179
rfemur 125.298 -86.2404 -209.762
rtibia 150.413
rfoot -62.4129 46.7336
rtoes -37.0814
lfemur -105.062 66.5484 -32.46
ltibia 150.851
lfoot -44.4441 -26.0149
ltoes -33.6905
72
root 1.04327 8.13433 2.82589 -183.564 -4.96009 -180.807
lowerback 42.0877 0.568997 7.37763
upperback 11.8931 -0.847752 0.257179
thorax -6.55698 -2.15505 -2.95945
lowerneck -18.1255 0.458776 3.45023
upperneck -7.02727 -1.35689 -3.69511
head 0.76569 -1.40504 -1.88014
rclavicle -3.18055e-015 -1.47101e-014
rhumerus 74.9166 0.0822182 -48.7264
rradius 16.8556
rwrist 21.2237
rhand -17.156 10.0169
rfingers 7.12502
rthumb 9.08479 -19.7675
lclavicle -3.18055e-015 -1.47101e-014
lhumerus 78.4533 -7.6355 56.8887
lradius 12.4668
lwrist -34.184
lhand -27.5196 -8.14643
lfingers 7.12502
lthumb -0.921969 21.8313
rfemur 98.718 -82.0959 -185.098
rtibia 151.495
rfoot -65.7512 48.7117
rtoes -36.3695
lfemur -110.805 72.4471 -36.9639
ltibia 152.041
lfoot -46.1371 -28.789
ltoes -32.3438
